{
	"asset":{
		"generator":"Khronos glTF Blender I/O v4.3.47",
		"version":"2.0"
	},
	"scene":0,
	"scenes":[
		{
			"name":"Scene",
			"nodes":[
				0
			]
		}
	],
	"nodes":[
		{
			"mesh":0,
			"name":"Plane"
		}
	],
	"materials":[
		{
			"doubleSided":true,
			"name":"Material.002",
			"normalTexture":{
				"index":0
			},
			"pbrMetallicRoughness":{
				"baseColorTexture":{
					"index":1
				},
				"metallicFactor":0,
				"roughnessFactor":0.5
			}
		}
	],
	"meshes":[
		{
			"name":"Plane",
			"primitives":[
				{
					"attributes":{
						"POSITION":0,
						"NORMAL":1,
						"TEXCOORD_0":2,
						"TANGENT":3
					},
					"indices":4,
					"material":0
				}
			]
		}
	],
	"textures":[
		{
			"sampler":0,
			"source":0
		},
		{
			"sampler":0,
			"source":1
		}
	],
	"images":[
		{
			"mimeType":"image/jpeg",
			"name":"Bricks091_4K-JPG_NormalGL",
			"uri":"Bricks091_4K-JPG_NormalGL.jpg"
		},
		{
			"mimeType":"image/jpeg",
			"name":"Bricks091_4K-JPG_Color",
			"uri":"Bricks091_4K-JPG_Color.jpg"
		}
	],
	"accessors":[
		{
			"bufferView":0,
			"componentType":5126,
			"count":16641,
			"max":[
				50,
				1.4181737899780273,
				50
			],
			"min":[
				-50,
				0.28016576170921326,
				-50
			],
			"type":"VEC3"
		},
		{
			"bufferView":1,
			"componentType":5126,
			"count":16641,
			"type":"VEC3"
		},
		{
			"bufferView":2,
			"componentType":5126,
			"count":16641,
			"type":"VEC2"
		},
		{
			"bufferView":3,
			"componentType":5126,
			"count":16641,
			"type":"VEC4"
		},
		{
			"bufferView":4,
			"componentType":5123,
			"count":98304,
			"type":"SCALAR"
		}
	],
	"bufferViews":[
		{
			"buffer":0,
			"byteLength":199692,
			"byteOffset":0,
			"target":34962
		},
		{
			"buffer":0,
			"byteLength":199692,
			"byteOffset":199692,
			"target":34962
		},
		{
			"buffer":0,
			"byteLength":133128,
			"byteOffset":399384,
			"target":34962
		},
		{
			"buffer":0,
			"byteLength":266256,
			"byteOffset":532512,
			"target":34962
		},
		{
			"buffer":0,
			"byteLength":196608,
			"byteOffset":798768,
			"target":34963
		}
	],
	"samplers":[
		{
			"magFilter":9729,
			"minFilter":9987
		}
	],
	"buffers":[
		{
			"byteLength":995376,
			"uri":"plane.bin"
		}
	]
}
