{
	"asset":{
		"generator":"Khronos glTF Blender I/O v3.5.30",
		"version":"2.0"
	},
	"scene":0,
	"scenes":[
		{
			"name":"Scene",
			"nodes":[
				0
			]
		}
	],
	"nodes":[
		{
			"mesh":0,
			"name":"Mesh_0.006"
		}
	],
	"materials":[
		{
			"name":"default.004",
			"normalTexture":{
				"index":0
			},
			"occlusionTexture":{
				"index":1
			},
			"pbrMetallicRoughness":{
				"baseColorTexture":{
					"index":2
				},
				"metallicFactor":0.10000000149011612,
				"roughnessFactor":0.800000011920929
			}
		}
	],
	"meshes":[
		{
			"name":"Mesh_0.006",
			"primitives":[
				{
					"attributes":{
						"POSITION":0,
						"TEXCOORD_0":1,
						"NORMAL":2
					},
					"indices":3,
					"material":0
				}
			]
		}
	],
	"textures":[
		{
			"sampler":0,
			"source":0
		},
		{
			"sampler":0,
			"source":1
		},
		{
			"sampler":0,
			"source":2
		}
	],
	"images":[
		{
			"mimeType":"image/jpeg",
			"name":"f1961_33-part_01-laser-ortery_texture-150k-4096-normals",
			"uri":"f1961_33-part_01-laser-ortery_texture-150k-4096-normals.jpg"
		},
		{
			"mimeType":"image/jpeg",
			"name":"f1961_33-part_01-laser-ortery_texture-150k-4096-occlusion",
			"uri":"f1961_33-part_01-laser-ortery_texture-150k-4096-occlusion.jpg"
		},
		{
			"mimeType":"image/jpeg",
			"name":"f1961_33-part_01-laser-ortery_texture-150k-4096-diffuse",
			"uri":"f1961_33-part_01-laser-ortery_texture-150k-4096-diffuse.jpg"
		}
	],
	"accessors":[
		{
			"bufferView":0,
			"componentType":5126,
			"count":87127,
			"max":[
				0.058430738747119904,
				0.31147199869155884,
				0.19695523381233215
			],
			"min":[
				-0.08489608764648438,
				0.1644875407218933,
				-0.06376718729734421
			],
			"type":"VEC3"
		},
		{
			"bufferView":1,
			"componentType":5126,
			"count":87127,
			"type":"VEC2"
		},
		{
			"bufferView":2,
			"componentType":5126,
			"count":87127,
			"type":"VEC3"
		},
		{
			"bufferView":3,
			"componentType":5125,
			"count":449571,
			"type":"SCALAR"
		}
	],
	"bufferViews":[
		{
			"buffer":0,
			"byteLength":1045524,
			"byteOffset":0,
			"target":34962
		},
		{
			"buffer":0,
			"byteLength":697016,
			"byteOffset":1045524,
			"target":34962
		},
		{
			"buffer":0,
			"byteLength":1045524,
			"byteOffset":1742540,
			"target":34962
		},
		{
			"buffer":0,
			"byteLength":1798284,
			"byteOffset":2788064,
			"target":34963
		}
	],
	"samplers":[
		{
			"magFilter":9729,
			"minFilter":9987
		}
	],
	"buffers":[
		{
			"byteLength":4586348,
			"uri":"f1961_33-part_01-laser-ortery_texture-150k-4096.bin"
		}
	]
}
